<svg width="140" height="118" viewBox="0 0 140 118" fill="none" xmlns="http://www.w3.org/2000/svg">
<path fill-rule="evenodd" clip-rule="evenodd" d="M85.9178 18.0162C81.7079 13.8013 76.1089 11.479 70.1442 11.4766C57.8532 11.4766 47.8502 21.4793 47.8452 33.7736C47.8436 37.7037 48.8703 41.5401 50.8217 44.9217L47.6582 56.4766L59.4792 53.3757C62.7364 55.1524 66.4033 56.0887 70.1351 56.0898H70.1445C82.434 56.0898 92.4382 46.0862 92.4429 33.7914C92.4453 27.833 90.128 22.2308 85.9178 18.0162ZM70.1442 52.324H70.1365C66.8109 52.3226 63.5494 51.4289 60.7034 49.7406L60.0269 49.3387L53.0121 51.179L54.8845 44.3397L54.4436 43.6385C52.5883 40.6876 51.6086 37.2769 51.6103 33.775C51.6141 23.5563 59.9286 15.2427 70.1516 15.2427C75.102 15.2443 79.7556 17.1746 83.2547 20.6779C86.7539 24.1812 88.6798 28.8377 88.6781 33.7901C88.6737 44.0095 80.3598 52.324 70.1442 52.324ZM80.3104 38.4431C79.7534 38.164 77.0139 36.8165 76.5031 36.6303C75.9928 36.4444 75.6209 36.3518 75.2498 36.9094C74.8782 37.4669 73.8106 38.7221 73.4854 39.0937C73.1602 39.4656 72.8356 39.5123 72.2783 39.2332C71.721 38.9545 69.9258 38.3659 67.7975 36.4677C66.1413 34.9903 65.0232 33.1658 64.698 32.6082C64.3734 32.0501 64.6952 31.7776 64.9424 31.4711C65.5456 30.7221 66.1496 29.9369 66.3352 29.5653C66.5212 29.1934 66.4281 28.8679 66.2885 28.5891C66.1496 28.3104 65.0353 25.5679 64.5711 24.452C64.1185 23.366 63.6595 23.5126 63.3173 23.4956C62.9926 23.4794 62.621 23.4761 62.2494 23.4761C61.8781 23.4761 61.2744 23.6154 60.7635 24.1735C60.2529 24.7313 58.8137 26.079 58.8137 28.8215C58.8137 31.564 60.8102 34.2133 61.0887 34.5852C61.3672 34.9571 65.0177 40.5848 70.6067 42.998C71.9361 43.5726 72.9737 43.9151 73.7831 44.1719C75.118 44.5959 76.3322 44.5361 77.2924 44.3927C78.3631 44.2326 80.5886 43.0447 81.0533 41.7433C81.5175 40.4417 81.5175 39.3264 81.378 39.0937C81.239 38.8614 80.8674 38.7221 80.3104 38.4431Z" fill="#079e78"/>
<path d="M22.4459 80H19.0794V69.0909H22.595C23.6533 69.0909 24.5588 69.3093 25.3117 69.7461C26.0645 70.1793 26.6416 70.8026 27.0428 71.6158C27.4441 72.4254 27.6448 73.3949 27.6448 74.5241C27.6448 75.6605 27.4423 76.6388 27.0375 77.4592C26.6327 78.2759 26.0432 78.9045 25.2691 79.3448C24.4949 79.7816 23.5539 80 22.4459 80ZM20.4004 78.8281H22.3607C23.2627 78.8281 24.0102 78.6541 24.6032 78.3061C25.1963 77.9581 25.6384 77.4627 25.9296 76.82C26.2208 76.1772 26.3664 75.4119 26.3664 74.5241C26.3664 73.6435 26.2225 72.8853 25.9349 72.2496C25.6472 71.6104 25.2176 71.1204 24.6458 70.7795C24.0741 70.435 23.3621 70.2628 22.5098 70.2628H20.4004V78.8281ZM29.9902 80V71.8182H31.2473V80H29.9902ZM30.6294 70.4545C30.3844 70.4545 30.1731 70.3711 29.9955 70.2042C29.8215 70.0373 29.7345 69.8366 29.7345 69.6023C29.7345 69.3679 29.8215 69.1673 29.9955 69.0004C30.1731 68.8335 30.3844 68.75 30.6294 68.75C30.8745 68.75 31.084 68.8335 31.258 69.0004C31.4355 69.1673 31.5243 69.3679 31.5243 69.6023C31.5243 69.8366 31.4355 70.0373 31.258 70.2042C31.084 70.3711 30.8745 70.4545 30.6294 70.4545ZM33.8498 80V71.8182H35.0643V73.054H35.1495C35.2987 72.6491 35.5685 72.3207 35.9592 72.0685C36.3498 71.8164 36.7901 71.6903 37.2802 71.6903C37.3725 71.6903 37.4879 71.6921 37.6264 71.6957C37.7649 71.6992 37.8697 71.7045 37.9407 71.7116V72.9901C37.8981 72.9794 37.8004 72.9634 37.6477 72.9421C37.4986 72.9173 37.3406 72.9048 37.1737 72.9048C36.7759 72.9048 36.4208 72.9883 36.1083 73.1552C35.7994 73.3185 35.5543 73.5458 35.3732 73.837C35.1957 74.1246 35.1069 74.4531 35.1069 74.8224V80H33.8498ZM42.9122 80.1705C42.1239 80.1705 41.4438 79.9964 40.8721 79.6484C40.3039 79.2969 39.8653 78.8068 39.5564 78.1783C39.251 77.5462 39.0983 76.8111 39.0983 75.973C39.0983 75.1349 39.251 74.3963 39.5564 73.7571C39.8653 73.1143 40.295 72.6136 40.8455 72.255C41.3994 71.8928 42.0457 71.7116 42.7844 71.7116C43.2105 71.7116 43.6313 71.7827 44.0468 71.9247C44.4623 72.0668 44.8405 72.2976 45.1814 72.6172C45.5223 72.9332 45.794 73.3523 45.9964 73.8743C46.1988 74.3963 46.3 75.0391 46.3 75.8026V76.3352H39.9932V75.2486H45.0216C45.0216 74.7869 44.9293 74.375 44.7446 74.0128C44.5635 73.6506 44.3043 73.3647 43.9669 73.1552C43.6331 72.9457 43.2389 72.8409 42.7844 72.8409C42.2837 72.8409 41.8504 72.9652 41.4847 73.2138C41.1224 73.4588 40.8437 73.7784 40.6484 74.1726C40.4531 74.5668 40.3554 74.9893 40.3554 75.4403V76.1648C40.3554 76.7827 40.4619 77.3065 40.675 77.7362C40.8916 78.1623 41.1917 78.4872 41.5752 78.7109C41.9587 78.9311 42.4044 79.0412 42.9122 79.0412C43.2425 79.0412 43.5408 78.995 43.8071 78.9027C44.077 78.8068 44.3096 78.6648 44.5049 78.4766C44.7002 78.2848 44.8511 78.0469 44.9577 77.7628L46.1722 78.1037C46.0443 78.5156 45.8295 78.8778 45.5276 79.1903C45.2258 79.4993 44.8529 79.7408 44.409 79.9148C43.9651 80.0852 43.4662 80.1705 42.9122 80.1705ZM51.8362 80.1705C51.0691 80.1705 50.4086 79.9893 49.8546 79.6271C49.3006 79.2649 48.8745 78.766 48.5762 78.1303C48.2779 77.4947 48.1288 76.7685 48.1288 75.9517C48.1288 75.1207 48.2815 74.3874 48.5869 73.7518C48.8958 73.1126 49.3255 72.6136 49.8759 72.255C50.4299 71.8928 51.0762 71.7116 51.8148 71.7116C52.3901 71.7116 52.9086 71.8182 53.3702 72.0312C53.8319 72.2443 54.2101 72.5426 54.5048 72.9261C54.7996 73.3097 54.9825 73.7571 55.0535 74.2685H53.7964C53.7005 73.8956 53.4874 73.5653 53.1572 73.2777C52.8305 72.9865 52.3901 72.8409 51.8362 72.8409C51.3461 72.8409 50.9164 72.9687 50.5471 73.2244C50.1813 73.4766 49.8955 73.8335 49.6895 74.2951C49.4871 74.7532 49.3859 75.2912 49.3859 75.9091C49.3859 76.5412 49.4853 77.0916 49.6842 77.5604C49.8866 78.0291 50.1707 78.3931 50.5364 78.6523C50.9058 78.9116 51.339 79.0412 51.8362 79.0412C52.1629 79.0412 52.4594 78.9844 52.7257 78.8707C52.992 78.7571 53.2175 78.5938 53.4022 78.3807C53.5869 78.1676 53.7183 77.9119 53.7964 77.6136H55.0535C54.9825 78.0966 54.8067 78.5316 54.5261 78.9187C54.2492 79.3022 53.8816 79.6076 53.4235 79.8349C52.969 80.0586 52.4398 80.1705 51.8362 80.1705ZM60.7494 71.8182V72.8835H56.5094V71.8182H60.7494ZM57.7452 69.858H59.0023V77.6562C59.0023 78.0114 59.0538 78.2777 59.1567 78.4553C59.2633 78.6293 59.3982 78.7464 59.5616 78.8068C59.7285 78.8636 59.9043 78.892 60.0889 78.892C60.2274 78.892 60.3411 78.8849 60.4298 78.8707C60.5186 78.853 60.5896 78.8388 60.6429 78.8281L60.8986 79.9574C60.8134 79.9893 60.6944 80.0213 60.5417 80.0533C60.389 80.0888 60.1955 80.1065 59.9611 80.1065C59.606 80.1065 59.258 80.0302 58.917 79.8775C58.5797 79.7248 58.2991 79.4922 58.0754 79.1797C57.8553 78.8672 57.7452 78.473 57.7452 77.9972V69.858ZM70.783 80.1705C70.016 80.1705 69.3555 79.9893 68.8015 79.6271C68.2475 79.2649 67.8214 78.766 67.5231 78.1303C67.2248 77.4947 67.0756 76.7685 67.0756 75.9517C67.0756 75.1207 67.2283 74.3874 67.5337 73.7518C67.8427 73.1126 68.2724 72.6136 68.8228 72.255C69.3768 71.8928 70.0231 71.7116 70.7617 71.7116C71.337 71.7116 71.8555 71.8182 72.3171 72.0312C72.7788 72.2443 73.157 72.5426 73.4517 72.9261C73.7464 73.3097 73.9293 73.7571 74.0004 74.2685H72.7433C72.6474 73.8956 72.4343 73.5653 72.104 73.2777C71.7773 72.9865 71.337 72.8409 70.783 72.8409C70.293 72.8409 69.8633 72.9687 69.494 73.2244C69.1282 73.4766 68.8423 73.8335 68.6364 74.2951C68.4339 74.7532 68.3327 75.2912 68.3327 75.9091C68.3327 76.5412 68.4322 77.0916 68.631 77.5604C68.8335 78.0291 69.1175 78.3931 69.4833 78.6523C69.8526 78.9116 70.2859 79.0412 70.783 79.0412C71.1097 79.0412 71.4062 78.9844 71.6726 78.8707C71.9389 78.7571 72.1644 78.5938 72.3491 78.3807C72.5337 78.1676 72.6651 77.9119 72.7433 77.6136H74.0004C73.9293 78.0966 73.7536 78.5316 73.473 78.9187C73.196 79.3022 72.8285 79.6076 72.3704 79.8349C71.9158 80.0586 71.3867 80.1705 70.783 80.1705ZM79.4619 80.1705C78.7233 80.1705 78.0752 79.9947 77.5177 79.6431C76.9637 79.2915 76.5305 78.7997 76.218 78.1676C75.909 77.5355 75.7545 76.7969 75.7545 75.9517C75.7545 75.0994 75.909 74.3555 76.218 73.7198C76.5305 73.0842 76.9637 72.5906 77.5177 72.239C78.0752 71.8874 78.7233 71.7116 79.4619 71.7116C80.2006 71.7116 80.8469 71.8874 81.4009 72.239C81.9584 72.5906 82.3916 73.0842 82.7006 73.7198C83.0131 74.3555 83.1693 75.0994 83.1693 75.9517C83.1693 76.7969 83.0131 77.5355 82.7006 78.1676C82.3916 78.7997 81.9584 79.2915 81.4009 79.6431C80.8469 79.9947 80.2006 80.1705 79.4619 80.1705ZM79.4619 79.0412C80.023 79.0412 80.4847 78.8974 80.8469 78.6097C81.2091 78.3221 81.4772 77.9439 81.6512 77.4751C81.8252 77.0064 81.9122 76.4986 81.9122 75.9517C81.9122 75.4048 81.8252 74.8952 81.6512 74.4229C81.4772 73.9506 81.2091 73.5689 80.8469 73.2777C80.4847 72.9865 80.023 72.8409 79.4619 72.8409C78.9009 72.8409 78.4392 72.9865 78.077 73.2777C77.7148 73.5689 77.4467 73.9506 77.2727 74.4229C77.0987 74.8952 77.0117 75.4048 77.0117 75.9517C77.0117 76.4986 77.0987 77.0064 77.2727 77.4751C77.4467 77.9439 77.7148 78.3221 78.077 78.6097C78.4392 78.8974 78.9009 79.0412 79.4619 79.0412ZM86.6454 75.0781V80H85.3883V71.8182H86.6028V73.0966H86.7093C86.901 72.6811 87.1922 72.3473 87.5829 72.0952C87.9735 71.8395 88.4778 71.7116 89.0956 71.7116C89.6496 71.7116 90.1344 71.8253 90.5498 72.0526C90.9653 72.2763 91.2885 72.6172 91.5193 73.0753C91.7501 73.5298 91.8655 74.1051 91.8655 74.8011V80H90.6084V74.8864C90.6084 74.2436 90.4415 73.7429 90.1077 73.3842C89.7739 73.022 89.3158 72.8409 88.7334 72.8409C88.3322 72.8409 87.9735 72.9279 87.6574 73.1019C87.3449 73.2759 87.0981 73.5298 86.917 73.8636C86.7359 74.1974 86.6454 74.6023 86.6454 75.0781ZM98.0209 71.8182V72.8835H93.7809V71.8182H98.0209ZM95.0167 69.858H96.2738V77.6562C96.2738 78.0114 96.3253 78.2777 96.4282 78.4553C96.5348 78.6293 96.6697 78.7464 96.8331 78.8068C97 78.8636 97.1757 78.892 97.3604 78.892C97.4989 78.892 97.6125 78.8849 97.7013 78.8707C97.7901 78.853 97.8611 78.8388 97.9144 78.8281L98.1701 79.9574C98.0848 79.9893 97.9659 80.0213 97.8132 80.0533C97.6605 80.0888 97.4669 80.1065 97.2326 80.1065C96.8775 80.1065 96.5294 80.0302 96.1885 79.8775C95.8512 79.7248 95.5706 79.4922 95.3469 79.1797C95.1267 78.8672 95.0167 78.473 95.0167 77.9972V69.858ZM102.62 80.1918C102.101 80.1918 101.631 80.0941 101.208 79.8988C100.785 79.6999 100.45 79.4141 100.201 79.0412C99.9527 78.6648 99.8284 78.2102 99.8284 77.6776C99.8284 77.2088 99.9207 76.8288 100.105 76.5376C100.29 76.2429 100.537 76.0121 100.846 75.8452C101.155 75.6783 101.496 75.554 101.869 75.4723C102.245 75.3871 102.623 75.3196 103.003 75.2699C103.5 75.206 103.903 75.158 104.212 75.1261C104.525 75.0906 104.752 75.032 104.894 74.9503C105.04 74.8686 105.112 74.7266 105.112 74.5241V74.4815C105.112 73.956 104.969 73.5476 104.681 73.2564C104.397 72.9652 103.965 72.8196 103.387 72.8196C102.786 72.8196 102.316 72.951 101.975 73.2138C101.634 73.4766 101.394 73.7571 101.256 74.0554L100.063 73.6293C100.276 73.1321 100.56 72.745 100.915 72.468C101.274 72.1875 101.664 71.9922 102.087 71.8821C102.513 71.7685 102.932 71.7116 103.344 71.7116C103.607 71.7116 103.909 71.7436 104.25 71.8075C104.594 71.8679 104.926 71.994 105.246 72.1857C105.569 72.3775 105.837 72.6669 106.05 73.054C106.263 73.4411 106.37 73.9595 106.37 74.6094V80H105.112V78.892H105.049C104.963 79.0696 104.821 79.2596 104.622 79.462C104.424 79.6644 104.159 79.8366 103.829 79.9787C103.498 80.1207 103.095 80.1918 102.62 80.1918ZM102.811 79.0625C103.308 79.0625 103.728 78.9648 104.068 78.7695C104.413 78.5742 104.672 78.3221 104.846 78.0131C105.024 77.7042 105.112 77.3793 105.112 77.0384V75.8878C105.059 75.9517 104.942 76.0103 104.761 76.0636C104.583 76.1133 104.377 76.1577 104.143 76.1967C103.912 76.2322 103.687 76.2642 103.467 76.2926C103.25 76.3175 103.074 76.3388 102.939 76.3565C102.612 76.3991 102.307 76.4684 102.023 76.5643C101.742 76.6566 101.515 76.7969 101.341 76.9851C101.171 77.1697 101.085 77.4219 101.085 77.7415C101.085 78.1783 101.247 78.5085 101.57 78.7322C101.897 78.9524 102.311 79.0625 102.811 79.0625ZM112.288 80.1705C111.521 80.1705 110.86 79.9893 110.306 79.6271C109.752 79.2649 109.326 78.766 109.028 78.1303C108.73 77.4947 108.581 76.7685 108.581 75.9517C108.581 75.1207 108.733 74.3874 109.039 73.7518C109.348 73.1126 109.777 72.6136 110.328 72.255C110.882 71.8928 111.528 71.7116 112.267 71.7116C112.842 71.7116 113.36 71.8182 113.822 72.0312C114.284 72.2443 114.662 72.5426 114.957 72.9261C115.251 73.3097 115.434 73.7571 115.505 74.2685H114.248C114.152 73.8956 113.939 73.5653 113.609 73.2777C113.282 72.9865 112.842 72.8409 112.288 72.8409C111.798 72.8409 111.368 72.9687 110.999 73.2244C110.633 73.4766 110.347 73.8335 110.141 74.2951C109.939 74.7532 109.838 75.2912 109.838 75.9091C109.838 76.5412 109.937 77.0916 110.136 77.5604C110.338 78.0291 110.622 78.3931 110.988 78.6523C111.358 78.9116 111.791 79.0412 112.288 79.0412C112.615 79.0412 112.911 78.9844 113.177 78.8707C113.444 78.7571 113.669 78.5938 113.854 78.3807C114.039 78.1676 114.17 77.9119 114.248 77.6136H115.505C115.434 78.0966 115.258 78.5316 114.978 78.9187C114.701 79.3022 114.333 79.6076 113.875 79.8349C113.421 80.0586 112.892 80.1705 112.288 80.1705ZM121.201 71.8182V72.8835H116.961V71.8182H121.201ZM118.197 69.858H119.454V77.6562C119.454 78.0114 119.506 78.2777 119.609 78.4553C119.715 78.6293 119.85 78.7464 120.013 78.8068C120.18 78.8636 120.356 78.892 120.541 78.892C120.679 78.892 120.793 78.8849 120.882 78.8707C120.97 78.853 121.041 78.8388 121.095 78.8281L121.35 79.9574C121.265 79.9893 121.146 80.0213 120.993 80.0533C120.841 80.0888 120.647 80.1065 120.413 80.1065C120.058 80.1065 119.71 80.0302 119.369 79.8775C119.031 79.7248 118.751 79.4922 118.527 79.1797C118.307 78.8672 118.197 78.473 118.197 77.9972V69.858ZM24.2367 93.8182L21.2111 102H19.9327L16.9072 93.8182H18.2708L20.5293 100.338H20.6146L22.8731 93.8182H24.2367ZM26.196 102V93.8182H27.4531V102H26.196ZM26.8352 92.4545C26.5902 92.4545 26.3789 92.3711 26.2013 92.2042C26.0273 92.0373 25.9403 91.8366 25.9403 91.6023C25.9403 91.3679 26.0273 91.1673 26.2013 91.0004C26.3789 90.8335 26.5902 90.75 26.8352 90.75C27.0802 90.75 27.2897 90.8335 27.4637 91.0004C27.6413 91.1673 27.7301 91.3679 27.7301 91.6023C27.7301 91.8366 27.6413 92.0373 27.4637 92.2042C27.2897 92.3711 27.0802 92.4545 26.8352 92.4545ZM32.4632 102.192C31.9448 102.192 31.4742 102.094 31.0516 101.899C30.6291 101.7 30.2935 101.414 30.0449 101.041C29.7963 100.665 29.672 100.21 29.672 99.6776C29.672 99.2088 29.7644 98.8288 29.949 98.5376C30.1337 98.2429 30.3805 98.0121 30.6894 97.8452C30.9984 97.6783 31.3393 97.554 31.7122 97.4723C32.0886 97.3871 32.4668 97.3196 32.8467 97.2699C33.3439 97.206 33.747 97.158 34.0559 97.1261C34.3684 97.0906 34.5957 97.032 34.7377 96.9503C34.8833 96.8686 34.9561 96.7266 34.9561 96.5241V96.4815C34.9561 95.956 34.8123 95.5476 34.5247 95.2564C34.2406 94.9652 33.8091 94.8196 33.2303 94.8196C32.6301 94.8196 32.1596 94.951 31.8187 95.2138C31.4778 95.4766 31.2381 95.7571 31.0996 96.0554L29.9064 95.6293C30.1195 95.1321 30.4036 94.745 30.7587 94.468C31.1173 94.1875 31.508 93.9922 31.9305 93.8821C32.3567 93.7685 32.7757 93.7116 33.1877 93.7116C33.4504 93.7116 33.7523 93.7436 34.0932 93.8075C34.4377 93.8679 34.7697 93.994 35.0893 94.1857C35.4124 94.3775 35.6805 94.6669 35.8936 95.054C36.1067 95.4411 36.2132 95.9595 36.2132 96.6094V102H34.9561V100.892H34.8922C34.807 101.07 34.6649 101.26 34.4661 101.462C34.2672 101.664 34.0026 101.837 33.6724 101.979C33.3421 102.121 32.9391 102.192 32.4632 102.192ZM32.655 101.062C33.1521 101.062 33.5712 100.965 33.9121 100.77C34.2565 100.574 34.5158 100.322 34.6898 100.013C34.8673 99.7042 34.9561 99.3793 34.9561 99.0384V97.8878C34.9029 97.9517 34.7857 98.0103 34.6046 98.0636C34.427 98.1133 34.221 98.1577 33.9867 98.1967C33.7558 98.2322 33.5303 98.2642 33.3102 98.2926C33.0935 98.3175 32.9178 98.3388 32.7828 98.3565C32.4561 98.3991 32.1507 98.4684 31.8666 98.5643C31.5861 98.6566 31.3588 98.7969 31.1848 98.9851C31.0144 99.1697 30.9291 99.4219 30.9291 99.7415C30.9291 100.178 31.0907 100.509 31.4139 100.732C31.7406 100.952 32.1543 101.062 32.655 101.062ZM45.4784 102L42.4955 91.0909H43.8378L46.1176 99.9759H46.2242L48.5466 91.0909H50.0381L52.3605 99.9759H52.4671L54.7469 91.0909H56.0892L53.1063 102H51.7426L49.335 93.3068H49.2497L46.8421 102H45.4784ZM59.1218 97.0781V102H57.8647V91.0909H59.1218V95.0966H59.2284C59.4201 94.674 59.7078 94.3384 60.0913 94.0898C60.4784 93.8377 60.9933 93.7116 61.636 93.7116C62.1936 93.7116 62.6818 93.8235 63.1009 94.0472C63.5199 94.2674 63.8448 94.6065 64.0757 95.0646C64.31 95.5192 64.4272 96.098 64.4272 96.8011V102H63.1701V96.8864C63.1701 96.2365 63.0014 95.734 62.6641 95.3789C62.3303 95.0202 61.8669 94.8409 61.2738 94.8409C60.8619 94.8409 60.4926 94.9279 60.1659 95.1019C59.8427 95.2759 59.587 95.5298 59.3988 95.8636C59.2142 96.1974 59.1218 96.6023 59.1218 97.0781ZM69.4347 102.192C68.9162 102.192 68.4457 102.094 68.0231 101.899C67.6005 101.7 67.265 101.414 67.0164 101.041C66.7678 100.665 66.6435 100.21 66.6435 99.6776C66.6435 99.2088 66.7358 98.8288 66.9205 98.5376C67.1052 98.2429 67.352 98.0121 67.6609 97.8452C67.9699 97.6783 68.3108 97.554 68.6836 97.4723C69.0601 97.3871 69.4383 97.3196 69.8182 97.2699C70.3154 97.206 70.7184 97.158 71.0274 97.1261C71.3399 97.0906 71.5672 97.032 71.7092 96.9503C71.8548 96.8686 71.9276 96.7266 71.9276 96.5241V96.4815C71.9276 95.956 71.7838 95.5476 71.4961 95.2564C71.212 94.9652 70.7806 94.8196 70.2017 94.8196C69.6016 94.8196 69.1311 94.951 68.7902 95.2138C68.4493 95.4766 68.2096 95.7571 68.0711 96.0554L66.8779 95.6293C67.091 95.1321 67.375 94.745 67.7302 94.468C68.0888 94.1875 68.4794 93.9922 68.902 93.8821C69.3282 93.7685 69.7472 93.7116 70.1591 93.7116C70.4219 93.7116 70.7238 93.7436 71.0647 93.8075C71.4091 93.8679 71.7412 93.994 72.0608 94.1857C72.3839 94.3775 72.652 94.6669 72.8651 95.054C73.0782 95.4411 73.1847 95.9595 73.1847 96.6094V102H71.9276V100.892H71.8637C71.7785 101.07 71.6364 101.26 71.4375 101.462C71.2387 101.664 70.9741 101.837 70.6439 101.979C70.3136 102.121 69.9106 102.192 69.4347 102.192ZM69.6265 101.062C70.1236 101.062 70.5427 100.965 70.8836 100.77C71.228 100.574 71.4873 100.322 71.6613 100.013C71.8388 99.7042 71.9276 99.3793 71.9276 99.0384V97.8878C71.8743 97.9517 71.7571 98.0103 71.576 98.0636C71.3985 98.1133 71.1925 98.1577 70.9581 98.1967C70.7273 98.2322 70.5018 98.2642 70.2816 98.2926C70.065 98.3175 69.8892 98.3388 69.7543 98.3565C69.4276 98.3991 69.1222 98.4684 68.8381 98.5643C68.5576 98.6566 68.3303 98.7969 68.1563 98.9851C67.9858 99.1697 67.9006 99.4219 67.9006 99.7415C67.9006 100.178 68.0622 100.509 68.3853 100.732C68.712 100.952 69.1258 101.062 69.6265 101.062ZM79.3374 93.8182V94.8835H75.0974V93.8182H79.3374ZM76.3332 91.858H77.5903V99.6562C77.5903 100.011 77.6418 100.278 77.7447 100.455C77.8513 100.629 77.9862 100.746 78.1496 100.807C78.3165 100.864 78.4923 100.892 78.6769 100.892C78.8154 100.892 78.929 100.885 79.0178 100.871C79.1066 100.853 79.1776 100.839 79.2309 100.828L79.4866 101.957C79.4013 101.989 79.2824 102.021 79.1297 102.053C78.977 102.089 78.7834 102.107 78.5491 102.107C78.194 102.107 77.8459 102.03 77.505 101.877C77.1677 101.725 76.8871 101.492 76.6634 101.18C76.4432 100.867 76.3332 100.473 76.3332 99.9972V91.858ZM87.1774 95.6506L86.0481 95.9702C85.9771 95.782 85.8723 95.5991 85.7338 95.4215C85.5989 95.2404 85.4142 95.0913 85.1799 94.9741C84.9455 94.8569 84.6454 94.7983 84.2796 94.7983C83.7789 94.7983 83.3617 94.9137 83.0279 95.1445C82.6976 95.3718 82.5325 95.6612 82.5325 96.0128C82.5325 96.3253 82.6461 96.5721 82.8734 96.7532C83.1007 96.9343 83.4558 97.0852 83.9387 97.206L85.1532 97.5043C85.8848 97.6818 86.4299 97.9535 86.7885 98.3192C87.1472 98.6815 87.3265 99.1484 87.3265 99.7202C87.3265 100.189 87.1916 100.608 86.9217 100.977C86.6554 101.347 86.2825 101.638 85.8031 101.851C85.3237 102.064 84.7662 102.17 84.1305 102.17C83.296 102.17 82.6053 101.989 82.0584 101.627C81.5115 101.265 81.1653 100.736 81.0197 100.04L82.2129 99.7415C82.3265 100.182 82.5414 100.512 82.8574 100.732C83.177 100.952 83.5943 101.062 84.1092 101.062C84.6951 101.062 85.1603 100.938 85.5048 100.69C85.8528 100.437 86.0268 100.136 86.0268 99.7841C86.0268 99.5 85.9274 99.2621 85.7285 99.0703C85.5296 98.875 85.2243 98.7294 84.8123 98.6335L83.4487 98.3139C82.6994 98.1364 82.149 97.8612 81.7974 97.4883C81.4494 97.1119 81.2754 96.6413 81.2754 96.0767C81.2754 95.6151 81.405 95.2067 81.6642 94.8516C81.927 94.4964 82.2839 94.2177 82.7349 94.0153C83.1895 93.8129 83.7044 93.7116 84.2796 93.7116C85.0893 93.7116 85.725 93.8892 86.1866 94.2443C86.6518 94.5994 86.9821 95.0682 87.1774 95.6506ZM91.9265 102.192C91.408 102.192 90.9375 102.094 90.5149 101.899C90.0923 101.7 89.7567 101.414 89.5082 101.041C89.2596 100.665 89.1353 100.21 89.1353 99.6776C89.1353 99.2088 89.2276 98.8288 89.4123 98.5376C89.5969 98.2429 89.8438 98.0121 90.1527 97.8452C90.4617 97.6783 90.8026 97.554 91.1754 97.4723C91.5518 97.3871 91.93 97.3196 92.31 97.2699C92.8072 97.206 93.2102 97.158 93.5192 97.1261C93.8317 97.0906 94.059 97.032 94.201 96.9503C94.3466 96.8686 94.4194 96.7266 94.4194 96.5241V96.4815C94.4194 95.956 94.2756 95.5476 93.9879 95.2564C93.7038 94.9652 93.2724 94.8196 92.6935 94.8196C92.0934 94.8196 91.6229 94.951 91.282 95.2138C90.9411 95.4766 90.7014 95.7571 90.5629 96.0554L89.3697 95.6293C89.5827 95.1321 89.8668 94.745 90.2219 94.468C90.5806 94.1875 90.9712 93.9922 91.3938 93.8821C91.82 93.7685 92.239 93.7116 92.6509 93.7116C92.9137 93.7116 93.2156 93.7436 93.5565 93.8075C93.9009 93.8679 94.233 93.994 94.5526 94.1857C94.8757 94.3775 95.1438 94.6669 95.3569 95.054C95.57 95.4411 95.6765 95.9595 95.6765 96.6094V102H94.4194V100.892H94.3555C94.2702 101.07 94.1282 101.26 93.9293 101.462C93.7305 101.664 93.4659 101.837 93.1357 101.979C92.8054 102.121 92.4023 102.192 91.9265 102.192ZM92.1183 101.062C92.6154 101.062 93.0344 100.965 93.3754 100.77C93.7198 100.574 93.9791 100.322 94.1531 100.013C94.3306 99.7042 94.4194 99.3793 94.4194 99.0384V97.8878C94.3661 97.9517 94.2489 98.0103 94.0678 98.0636C93.8903 98.1133 93.6843 98.1577 93.4499 98.1967C93.2191 98.2322 92.9936 98.2642 92.7734 98.2926C92.5568 98.3175 92.381 98.3388 92.2461 98.3565C91.9194 98.3991 91.614 98.4684 91.3299 98.5643C91.0494 98.6566 90.8221 98.7969 90.6481 98.9851C90.4776 99.1697 90.3924 99.4219 90.3924 99.7415C90.3924 100.178 90.554 100.509 90.8771 100.732C91.2038 100.952 91.6175 101.062 92.1183 101.062ZM98.271 105.068V93.8182H99.4855V95.1179H99.6346C99.7269 94.9759 99.8548 94.7947 100.018 94.5746C100.185 94.3509 100.423 94.152 100.732 93.978C101.044 93.8004 101.467 93.7116 102 93.7116C102.689 93.7116 103.296 93.8839 103.821 94.2283C104.347 94.5728 104.757 95.0611 105.052 95.6932C105.347 96.3253 105.494 97.071 105.494 97.9304C105.494 98.7969 105.347 99.5479 105.052 100.184C104.757 100.816 104.349 101.306 103.827 101.654C103.305 101.998 102.703 102.17 102.021 102.17C101.495 102.17 101.075 102.083 100.759 101.909C100.442 101.732 100.199 101.531 100.029 101.308C99.8583 101.08 99.7269 100.892 99.6346 100.743H99.5281V105.068H98.271ZM99.5068 97.9091C99.5068 98.527 99.5973 99.0721 99.7784 99.5444C99.9595 100.013 100.224 100.381 100.572 100.647C100.92 100.91 101.346 101.041 101.851 101.041C102.376 101.041 102.815 100.903 103.166 100.626C103.521 100.345 103.788 99.9687 103.965 99.4964C104.146 99.0206 104.237 98.4915 104.237 97.9091C104.237 97.3338 104.148 96.8153 103.971 96.3537C103.797 95.8885 103.532 95.521 103.177 95.2511C102.825 94.9776 102.383 94.8409 101.851 94.8409C101.339 94.8409 100.909 94.9705 100.561 95.2298C100.213 95.4854 99.9507 95.8441 99.7731 96.3058C99.5955 96.7638 99.5068 97.2983 99.5068 97.9091ZM107.712 105.068V93.8182H108.926V95.1179H109.075C109.168 94.9759 109.295 94.7947 109.459 94.5746C109.626 94.3509 109.864 94.152 110.173 93.978C110.485 93.8004 110.908 93.7116 111.44 93.7116C112.129 93.7116 112.736 93.8839 113.262 94.2283C113.788 94.5728 114.198 95.0611 114.492 95.6932C114.787 96.3253 114.935 97.071 114.935 97.9304C114.935 98.7969 114.787 99.5479 114.492 100.184C114.198 100.816 113.789 101.306 113.267 101.654C112.745 101.998 112.143 102.17 111.462 102.17C110.936 102.17 110.515 102.083 110.199 101.909C109.883 101.732 109.64 101.531 109.469 101.308C109.299 101.08 109.168 100.892 109.075 100.743H108.969V105.068H107.712ZM108.947 97.9091C108.947 98.527 109.038 99.0721 109.219 99.5444C109.4 100.013 109.665 100.381 110.013 100.647C110.361 100.91 110.787 101.041 111.291 101.041C111.817 101.041 112.255 100.903 112.607 100.626C112.962 100.345 113.228 99.9687 113.406 99.4964C113.587 99.0206 113.678 98.4915 113.678 97.9091C113.678 97.3338 113.589 96.8153 113.411 96.3537C113.237 95.8885 112.973 95.521 112.617 95.2511C112.266 94.9776 111.824 94.8409 111.291 94.8409C110.78 94.8409 110.35 94.9705 110.002 95.2298C109.654 95.4854 109.391 95.8441 109.214 96.3058C109.036 96.7638 108.947 97.2983 108.947 97.9091ZM118.793 98.9318V98.8679C118.8 98.1896 118.871 97.6499 119.006 97.2486C119.141 96.8473 119.333 96.5224 119.581 96.2738C119.83 96.0252 120.128 95.7962 120.476 95.5866C120.686 95.4588 120.874 95.3079 121.041 95.1339C121.208 94.9563 121.339 94.7521 121.435 94.5213C121.534 94.2905 121.584 94.0348 121.584 93.7543C121.584 93.4062 121.502 93.1044 121.339 92.8487C121.176 92.593 120.957 92.396 120.684 92.2575C120.41 92.119 120.107 92.0497 119.773 92.0497C119.482 92.0497 119.201 92.1101 118.931 92.2308C118.661 92.3516 118.436 92.5415 118.255 92.8008C118.074 93.06 117.969 93.3991 117.941 93.8182H116.598C116.627 93.2145 116.783 92.6978 117.067 92.2681C117.355 91.8384 117.733 91.5099 118.202 91.2827C118.674 91.0554 119.198 90.9418 119.773 90.9418C120.398 90.9418 120.941 91.0661 121.403 91.3146C121.868 91.5632 122.227 91.9041 122.479 92.3374C122.735 92.7706 122.862 93.2642 122.862 93.8182C122.862 94.2088 122.802 94.5621 122.681 94.8782C122.564 95.1942 122.394 95.4766 122.17 95.7251C121.95 95.9737 121.683 96.1939 121.371 96.3857C121.058 96.581 120.808 96.7869 120.62 97.0036C120.432 97.2166 120.295 97.4705 120.21 97.7653C120.125 98.06 120.078 98.4276 120.071 98.8679V98.9318H118.793ZM119.475 102.085C119.212 102.085 118.986 101.991 118.798 101.803C118.61 101.615 118.516 101.389 118.516 101.126C118.516 100.864 118.61 100.638 118.798 100.45C118.986 100.262 119.212 100.168 119.475 100.168C119.737 100.168 119.963 100.262 120.151 100.45C120.339 100.638 120.433 100.864 120.433 101.126C120.433 101.3 120.389 101.46 120.3 101.606C120.215 101.751 120.1 101.869 119.954 101.957C119.812 102.043 119.652 102.085 119.475 102.085Z" fill="#079e78"/>
</svg>
