<svg class="icon icon-tiktok" xmlns="http://www.w3.org/2000/svg" width="24" height="25" viewBox="0 0 24 25" fill="none">
  <path d="M11.918 15.0518L10.7373 14.7266C10.5378 14.6715 10.37 14.6475 10.2031 14.6475C9.21253 14.6475 8.458 15.4208 8.458 16.3076V16.3086C8.45703 17.2021 9.20571 17.9707 10.1885 17.9707C11.1716 17.9705 11.918 17.2044 11.918 16.3105V15.0518ZM13.918 16.3105C13.918 18.3564 12.2281 19.9705 10.1885 19.9707C8.14825 19.9707 6.45589 18.3528 6.458 16.3066C6.45839 14.3214 8.06024 12.7533 10.0039 12.6523V11.2842C7.49229 11.3732 5.37177 13.2132 5.04394 15.665C4.67949 18.3919 6.65466 20.9338 9.52441 21.2969C12.4002 21.6605 14.9906 19.6871 15.3545 16.9551C15.3914 16.6767 15.3916 16.4148 15.3916 16.0586V7.45898L17.0537 8.92969C17.6594 9.46532 18.6063 9.8046 19.5078 10.001C19.68 10.0385 19.8457 10.0678 20 10.0938V8.78906C18.001 8.45386 16.8133 7.36579 16.1553 6.19727C15.7803 5.53138 15.5914 4.86291 15.4941 4.33984H13.918V16.3105ZM17.3916 16.0586C17.3916 16.3901 17.3942 16.7865 17.3369 17.2188V17.2197C16.821 21.0916 13.1895 23.7761 9.27441 23.2812C5.35335 22.7854 2.54313 19.2765 3.06152 15.3994C3.57938 11.5276 7.2124 8.84397 11.1289 9.33887L11.918 9.4375V2.33984H17.3926V3.38281C17.3926 3.49286 17.4246 4.37431 17.8984 5.21582C18.332 5.98569 19.1777 6.81278 21.041 6.88965L22 6.92969V12.2158H20.9785L20.958 12.2148H20.9521C20.9496 12.2147 20.9463 12.2141 20.9424 12.2139C20.9342 12.2135 20.9229 12.2136 20.9092 12.2129C20.8817 12.2114 20.8432 12.2085 20.7949 12.2051C20.6985 12.1982 20.5624 12.1872 20.3955 12.1689C20.0624 12.1326 19.6 12.0679 19.082 11.9551C18.5778 11.8452 17.9842 11.6809 17.3916 11.4336V16.0586Z" fill="#2A3942"/>
</svg>