<svg class="icon icon-google" width="24" height="25" viewBox="0 0 24 25" fill="none" xmlns="http://www.w3.org/2000/svg">
<path d="M5.79004 12.3896C5.79027 8.99231 8.45835 6.21778 11.8135 6.04785L12.1396 6.04004C13.3508 6.00821 14.5402 6.33744 15.5596 6.98047C15.9409 6.56818 16.3343 6.16735 16.7402 5.7793C15.3847 4.85076 13.778 4.34597 12.126 4.33984H12.123C7.67231 4.31044 4.03853 7.89009 4 12.3398C4.03827 16.7897 7.67213 20.3692 12.123 20.3398H12.1299L12.6875 20.3271C15.4101 20.1964 17.164 19.1053 18.2725 17.6777C19.4856 16.1152 20 14.0487 20 12.1299V12.1201L19.9912 11.5762C19.9907 11.5641 19.9888 11.5521 19.9883 11.54H13V13.1904H18.4023L18.0303 14.4697C17.6688 15.7127 17.1009 16.8232 16.0967 17.6055C15.0889 18.3904 13.7767 18.7402 12.1396 18.7402C8.6328 18.74 5.79004 15.8965 5.79004 12.3896ZM7.79004 12.3896C7.79004 14.7919 9.73738 16.74 12.1396 16.7402C13.5024 16.7402 14.326 16.4497 14.8682 16.0273C15.1421 15.8139 15.3785 15.5401 15.584 15.1904H12.5C11.6717 15.1904 11.0002 14.5187 11 13.6904V11.04C11 10.2114 11.6718 9.54004 12.5 9.54004H20.5C21.1932 9.53859 21.7831 10.0267 21.9219 10.6934L21.9434 10.8291L21.9453 10.8467C21.9853 11.2731 22.0038 11.7015 22 12.1299L21.9932 12.5518C21.9226 14.6763 21.3119 17.0247 19.8525 18.9043C18.2657 20.948 15.7493 22.3374 12.1357 22.3389L12.1367 22.3398L12.1338 22.3389C12.1325 22.3389 12.1311 22.3398 12.1299 22.3398V22.3389C6.74928 22.371 2.32757 18.1777 2.01758 12.8652L2 12.3477V12.332L2.01758 11.8145C2.32786 6.5012 6.75104 2.30706 12.1328 2.34082L12.1338 2.33984L12.1348 2.34082L12.1367 2.33984L12.1357 2.34082C14.2869 2.34923 16.377 3.03512 18.1104 4.29688L18.4521 4.55664L18.4629 4.56543L18.5791 4.67188C18.8003 4.8946 18.9478 5.18037 19 5.49023L19.0176 5.64746L19.0195 5.67676V5.70605C19.0212 6.11782 18.8593 6.51293 18.5693 6.80469L18.5527 6.82227L18.5352 6.83789C17.9089 7.41051 17.311 8.01411 16.7451 8.64648L16.7402 8.65234C16.2233 9.22128 15.3594 9.30264 14.7451 8.84277V8.84375C14.002 8.29384 13.0948 8.01107 12.1709 8.04004H12.1396C9.73753 8.04023 7.79028 9.98749 7.79004 12.3896Z" fill="#2A3942"/>
</svg>
