<svg class="icon icon-mail" width="24" height="25" viewBox="0 0 24 25" fill="none" xmlns="http://www.w3.org/2000/svg">
<path d="M20 4.33984H4C2.897 4.33984 2 5.23684 2 6.33984V18.3398C2 19.4428 2.897 20.3398 4 20.3398H20C21.103 20.3398 22 19.4428 22 18.3398V6.33984C22 5.23684 21.103 4.33984 20 4.33984ZM20 6.33984V6.85084L12 13.0738L4 6.85184V6.33984H20ZM4 18.3398V9.38384L11.386 15.1288C11.5611 15.2664 11.7773 15.3412 12 15.3412C12.2227 15.3412 12.4389 15.2664 12.614 15.1288L20 9.38384L20.002 18.3398H4Z" fill="#2A3942"/>
</svg>
