<svg width="124" height="33" viewBox="0 0 124 33" fill="none" xmlns="http://www.w3.org/2000/svg">
<g clip-path="url(#clip0_3746_5216)">
<path d="M36.4801 0C33.8412 0 31.775 1.71496 31.775 3.90499V29.022C31.775 31.2126 33.8419 32.9276 36.4801 32.9276C39.107 32.9276 41.2436 31.1755 41.2436 29.022V3.90468C41.2436 1.75178 39.107 0 36.4801 0ZM21.4823 0.201326C18.851 0.201326 16.7894 1.91106 16.7894 4.09466V13.8178L8.75063 2.06912L8.70019 2.00129C8.65535 1.94237 8.61145 1.88436 8.55821 1.82605C7.78353 0.801008 6.49791 0.213295 5.02952 0.213295C4.98157 0.213295 4.93331 0.214216 4.8919 0.216057C4.87228 0.216057 4.85298 0.212375 4.83336 0.210226C4.7952 0.204822 4.75671 0.201849 4.71816 0.201326C2.08776 0.201326 0.0274658 1.91137 0.0274658 4.09435V29.1116C0.0274658 31.2921 2.08776 33 4.71785 33C7.33237 33 9.4596 31.2562 9.4596 29.1116V19.3319L17.103 30.4957C17.3639 31.0717 17.7867 31.5916 18.3191 31.9943C19.0929 32.6382 20.1247 32.9923 21.2229 32.9923C21.2612 32.9923 21.2992 32.9917 21.3331 32.9911C21.3506 32.9911 21.3671 32.9936 21.3836 32.9948C21.4157 32.9978 21.4477 33.0003 21.4817 33.0003C24.0987 33.0003 26.2281 31.2565 26.2281 29.1119V4.09435C26.2287 1.94789 24.0996 0.201326 21.4823 0.201326Z" fill="#EE712A"/>
<path d="M89.8163 0.380615C89.0868 0.380615 88.371 0.50982 87.6947 0.760557L82.1409 2.72809C79.7393 3.57022 78.6284 6.37038 79.6123 9.10485C80.3923 11.2467 82.3464 12.7428 84.3634 12.7428H84.364C84.4325 12.7428 84.5007 12.741 84.5683 12.7379V28.2628C84.5683 30.7778 86.8736 32.7481 89.8163 32.7481C92.7366 32.7481 95.1126 30.7355 95.1126 28.2628V4.8681C95.1126 2.39357 92.7366 0.380615 89.8163 0.380615ZM89.8163 30.6274C88.0795 30.6274 86.7192 29.5886 86.7192 28.2628V9.87978L84.9569 10.5197C84.7696 10.5839 84.5726 10.6164 84.3743 10.6157C83.2571 10.6157 82.106 9.68121 81.6377 8.39561C81.0592 6.78101 81.5976 5.16917 82.866 4.72539L88.4392 2.75019C88.8793 2.58637 89.3458 2.50196 89.8163 2.50099C91.55 2.50099 92.9611 3.56255 92.9611 4.8678V28.2625C92.9611 29.5665 91.5503 30.6274 89.8163 30.6274ZM120.74 14.6324C121.773 13.1394 122.317 11.4465 122.317 9.71344C122.317 4.56703 117.722 0.380615 112.074 0.380615C106.428 0.380615 101.835 4.56765 101.835 9.71344C101.835 11.4486 102.377 13.1418 103.408 14.6349C101.349 16.638 100.176 19.3013 100.176 22.0011C100.176 27.9743 105.513 32.8331 112.074 32.8331C118.635 32.8331 123.973 27.9743 123.973 22.0011C123.973 19.3001 122.799 16.6362 120.74 14.6324ZM112.074 30.7124C106.699 30.7124 102.326 26.8053 102.326 22.0011C102.326 19.5919 103.499 17.253 105.545 15.5841L106.385 14.901L105.682 14.0837C104.573 12.7901 103.986 11.2786 103.986 9.71313C103.986 5.73632 107.614 2.50099 112.074 2.50099C116.536 2.50099 120.166 5.73632 120.166 9.71313C120.166 11.2746 119.578 12.7861 118.464 14.0843L117.762 14.905L118.603 15.5838C120.677 17.2733 121.821 19.5529 121.821 22.0008C121.821 26.805 117.449 30.7124 112.074 30.7124Z" fill="#FAB400"/>
<path d="M57.0758 19.1029C56.7881 18.8561 55.9639 18.0419 55.911 16.7643C55.8832 16.0455 56.0956 14.9913 57.2617 14.0304L59.7367 11.4798L61.3847 9.72892L54.6035 2.5803C53.525 1.28181 52.2503 0.594971 50.9186 0.594971C49.7569 0.594971 48.5799 1.09982 47.4089 2.10768C45.0413 4.49843 45.8851 7.03986 47.4602 8.61794L55.0753 16.6894L47.4213 24.867C46.2612 26.145 45.0135 28.9657 47.6931 31.4378C48.588 32.2403 49.5959 32.6466 50.6894 32.6466C52.721 32.6466 54.2473 31.2208 54.5366 30.9305L61.358 23.6634L57.0758 19.1029Z" fill="#EE712A"/>
<path d="M75.7508 1.91631L75.724 1.89115C74.576 0.906307 73.3305 0.385498 72.1231 0.385498C70.706 0.385498 69.3793 1.08155 68.2852 2.39784L59.7367 11.4808L57.2617 14.0312C56.0953 14.9921 55.8833 16.0463 55.911 16.765C55.9639 18.0427 56.7881 18.8569 57.0758 19.1036L68.3475 31.1086C68.6408 31.4038 70.2131 32.8739 72.3429 32.8739C73.4931 32.8739 74.5548 32.4452 75.5029 31.5941C78.3086 29.0094 76.9934 26.0494 75.7691 24.7021L68.2699 16.6908L75.7162 8.79639C77.3795 7.13207 78.2625 4.451 75.7508 1.91631ZM65.756 16.6822L74.4041 25.9232C75.4092 27.0262 75.8962 28.7452 74.254 30.257C73.6637 30.7876 73.0207 31.0561 72.3426 31.0561C71.3337 31.0561 70.2751 30.4488 69.6838 29.8571L58.3605 17.8021L58.3215 17.7649C58.1587 17.6277 57.776 17.2487 57.7536 16.6902C57.7409 16.4014 57.8059 15.9487 58.5118 15.3637L69.6708 3.59475L69.6901 3.57326C70.4551 2.65441 71.2783 2.18884 72.1355 2.18884C72.8775 2.18884 73.6603 2.5338 74.4648 3.21481C75.8205 4.59493 75.7947 6.1279 74.3832 7.54332L65.756 16.6822Z" fill="#FAB400"/>
</g>
<defs>
<clipPath id="clip0_3746_5216">
<rect width="124" height="33" fill="white"/>
</clipPath>
</defs>
</svg>
