<svg width="76" height="132" viewBox="0 0 76 132" fill="none" xmlns="http://www.w3.org/2000/svg">
<path d="M36.6447 6.89746C48.6613 0.139202 61.5575 0.458757 66.9279 0.589844L67.757 0.608398C68.0078 0.613301 68.2331 0.617188 68.4318 0.617188L68.7902 0.625977C72.4723 0.812651 75.4006 3.85751 75.4006 7.58594C75.4003 11.3141 72.4721 14.3583 68.7902 14.5449L68.4318 14.5537L66.5266 14.5332C61.022 14.4444 52.1891 14.3076 43.8918 18.8154L43.09 19.2666C35.3726 23.7638 26.9426 33.3819 24.759 55.5342C32.3281 51.9709 39.9622 51.7467 46.6594 54.29L47.1691 54.4902C57.6546 58.7541 65.4833 70.7091 60.2805 82.4414L60.0187 83.0088C56.7987 89.7188 51.7879 93.9933 45.5676 95.2949L44.9611 95.4111C39.0584 96.4506 33.2995 94.6455 28.633 92.0225L28.1848 91.7666C23.9459 89.3001 20.0979 85.8775 17.0851 82.1309C12.4676 93.3561 14.7194 105.328 19.6115 122.523L19.7004 122.871C20.5018 126.348 18.5361 129.877 15.1584 131.026L14.8156 131.134C11.2293 132.154 7.49961 130.17 6.31268 126.68L6.20624 126.338C0.826878 107.43 -3.30222 89.37 6.83807 71.3975L7.03827 71.043L7.04999 71.0215L7.06561 71.001L7.30682 70.6738L8.08124 69.6494C8.82325 68.6869 9.57553 67.7687 10.3351 66.8926C10.306 66.4794 10.2892 66.0651 10.2892 65.6504V65.6113L10.2902 65.5771L10.3137 64.0508C10.9847 32.2352 22.0177 15.4152 36.0734 7.22461L36.6447 6.89746ZM41.7111 67.3203C38.3272 66.0352 32.7111 65.8828 26.1808 70.9053C26.4727 71.3808 26.8011 71.8757 27.1711 72.3857L27.5734 72.9248C29.6306 75.6078 32.3545 78.0672 35.1945 79.7197L35.7697 80.043C38.615 81.5815 40.9513 81.9661 42.5441 81.6855L42.798 81.6338C43.4036 81.4945 44.0958 81.2125 44.8264 80.6152C45.6655 79.9292 46.5732 78.8125 47.4533 76.9785L47.5607 76.7324C48.5667 74.2 47.3607 69.7337 42.2365 67.5322L41.7111 67.3203Z" fill="#F26336" stroke="black" stroke-width="0.802201" stroke-miterlimit="16" stroke-linecap="round"/>
</svg>
