<svg width="154" height="158" viewBox="0 0 154 158" fill="none" xmlns="http://www.w3.org/2000/svg">
<path d="M65.7159 1.24512C68.9089 0.873191 71.8668 3.06765 72.4064 6.27344L72.6847 7.98242C75.4629 25.6145 76.6356 51.0104 71.8263 72.3594L71.5851 73.4062C69.3454 82.8957 65.7921 91.9716 60.2697 99.1445C61.3217 100.977 62.3429 102.922 63.3263 104.984L63.9562 106.286C77.2954 133.378 96.3956 145.042 111.01 144.573L111.693 144.542C118.724 144.136 125.194 140.942 130.276 134.621L130.773 133.988C135.852 127.342 139.643 117.178 140.519 102.97L140.546 102.658C140.906 99.4633 143.713 97.0783 146.958 97.2783L147.27 97.3047C150.361 97.6532 152.694 100.293 152.66 103.404L152.65 103.717C151.67 119.612 147.355 132.31 140.427 141.371L139.748 142.236C132.573 151.16 122.958 156.057 112.422 156.674L111.4 156.721C90.1215 157.404 67.5215 141.036 53.0392 111.626L52.3556 110.216C51.9591 109.384 51.5578 108.581 51.1544 107.805C44.6887 112.15 36.7953 114.353 27.4532 113.726L26.5265 113.654C13.7837 112.554 4.49287 108.053 1.52356 99.9277L1.38684 99.5381C-1.44985 91.0928 3.79269 83.2175 10.2111 79.041L10.8556 78.6348C17.6009 74.5248 26.9428 73.0666 36.5275 76.7207L37.0714 76.9326C42.551 79.1303 47.8932 82.9254 52.8165 88.5605C55.807 83.6854 58.1079 77.5971 59.756 70.6143L59.9747 69.668C64.3233 50.3482 63.3169 26.6322 60.6857 9.91211L60.421 8.29004C59.8644 4.98065 62.0961 1.84602 65.4054 1.28906L65.7159 1.24512ZM32.1984 88.0771C26.2007 85.7906 20.786 86.8172 17.1827 89.0117L16.839 89.2275C12.8889 91.7979 12.545 94.5881 12.9073 95.668L12.9503 95.7832C13.4622 97.0432 16.2368 100.567 27.5724 101.546L28.2491 101.598C35.012 102.057 40.2967 100.515 44.5499 97.6006C40.5679 92.7515 36.5511 89.9056 32.9327 88.3721L32.1984 88.0771Z" fill="#F26336" stroke="#2A3942" stroke-width="0.802201" stroke-miterlimit="16" stroke-linecap="round"/>
</svg>
