<svg width="132" height="181" viewBox="0 0 132 181" fill="none" xmlns="http://www.w3.org/2000/svg">
<path opacity="0.7" d="M73.5763 3.1841C84.917 12.4765 105.954 49.9609 78.7868 63.8261C43.4765 81.8475 38.9059 52.3788 43.9081 43.0653C52.5671 26.9433 81.9761 49.5165 69.2909 84.4595C63.7524 99.7163 44.8393 86.5326 34.6088 84.5073C-7.73332 76.1246 -5.86059 145.666 33.9642 151.518C58.3391 153.587 81.4247 144.849 90.4164 157.114C99.4082 169.378 89.6064 184.994 77.5833 173.611C64.109 160.854 70.3482 126.5 80.6444 123.506C95.3894 119.219 104.756 126.62 115.946 123.366C125.462 120.599 126.389 114.607 128.697 109.534" stroke="white" stroke-width="5" stroke-linecap="round"/>
</svg>
