<svg class="icon icon-cart" width="20" height="20" viewBox="0 0 20 20" fill="none" xmlns="http://www.w3.org/2000/svg">
<g id="icon">
<path d="M19 6.49991H17.58L13.868 0.00390625L12.132 0.995906L15.277 6.49991H4.72302L7.86902 0.995906L6.13202 0.00390625L2.42002 6.49991H1.00002C0.846315 6.50008 0.694715 6.53564 0.55697 6.60384C0.419226 6.67204 0.299037 6.77104 0.20572 6.89318C0.112403 7.01531 0.0484649 7.15729 0.0188624 7.30812C-0.0107401 7.45894 -0.00521182 7.61456 0.0350183 7.76291L2.83402 18.0269C2.95037 18.4497 3.20213 18.8227 3.55072 19.0887C3.89931 19.3548 4.3255 19.4992 4.76402 19.4999H15.237C16.135 19.4999 16.929 18.8949 17.167 18.0249L19.966 7.76191C20.0067 7.61351 20.0126 7.45771 19.9831 7.30668C19.9536 7.15565 19.8896 7.01348 19.7961 6.89129C19.7025 6.7691 19.582 6.67019 19.4439 6.6023C19.3058 6.5344 19.1539 6.49936 19 6.49991ZM15.236 17.4999H4.76402L2.31002 8.49991H17.69L15.236 17.4999Z" fill="#2A3942"/>
<path d="M7 10.4999H9V15.4999H7V10.4999ZM11 10.4999H13V15.4999H11V10.4999Z" fill="#2A3942"/>
</g>
</svg>
