
<svg class="icon icon-facebook" xmlns="http://www.w3.org/2000/svg" width="24" height="25" viewBox="0 0 24 25" fill="none">
  <path fill-rule="evenodd" clip-rule="evenodd" d="M7.5 4.33984C5.56728 4.33984 4 5.90713 4 7.83984V16.8438C4 18.7746 5.56528 20.3398 7.496 20.3398H16.504C18.4349 20.3398 20 18.7744 20 16.8448V7.83584C20 5.90513 18.4347 4.33984 16.504 4.33984H7.5ZM7.5 2.33984H16.504C19.5393 2.33984 22 4.80056 22 7.83584V16.8448C22 19.8793 19.5391 22.3398 16.504 22.3398H7.496C4.46071 22.3398 2 19.8791 2 16.8438V7.83984C2 4.80256 4.46272 2.33984 7.5 2.33984Z" fill="#2A3942"/>
  <path fill-rule="evenodd" clip-rule="evenodd" d="M10.1001 13.2397C10.1001 12.6875 10.5478 12.2397 11.1001 12.2397H13.8001H16.5001C17.0524 12.2397 17.5001 12.6875 17.5001 13.2397C17.5001 13.792 17.0524 14.2397 16.5001 14.2397H11.1001C10.5478 14.2397 10.1001 13.792 10.1001 13.2397Z" fill="#2A3942"/>
  <path fill-rule="evenodd" clip-rule="evenodd" d="M11.8999 11.3947C11.8999 9.37646 13.5366 7.73975 15.5549 7.73975H16.4999C17.0522 7.73975 17.4999 8.18746 17.4999 8.73975C17.4999 9.29203 17.0522 9.73975 16.4999 9.73975H15.5549C14.6412 9.73975 13.8999 10.481 13.8999 11.3947V21.3397C13.8999 21.892 13.4522 22.3397 12.8999 22.3397C12.3476 22.3397 11.8999 21.892 11.8999 21.3397V11.3947Z" fill="#2A3942"/>
</svg>