<svg class="icon icon-whatsapp" width="24" height="25" viewBox="0 0 24 25" fill="none" xmlns="http://www.w3.org/2000/svg">
<path fill-rule="evenodd" clip-rule="evenodd" d="M2.00003 12.3398C2.00003 6.81699 6.47717 2.33984 12 2.33984C17.5229 2.33984 22 6.81699 22 12.3398C22 17.8627 17.5229 22.3398 12 22.3398C10.1364 22.3398 8.38963 21.8292 6.89471 20.9401L3.22158 22.2844C2.89599 22.4036 2.53097 22.3272 2.28051 22.0875C2.03004 21.8477 1.93775 21.4864 2.04257 21.1559L3.28326 17.2439C2.46611 15.7943 2.00003 14.1203 2.00003 12.3398ZM12 4.15802C7.48133 4.15802 3.81821 7.82114 3.81821 12.3398C3.81821 13.9238 4.26739 15.4 5.04492 16.6513C5.18514 16.877 5.21962 17.1527 5.1393 17.4059L4.33542 19.9406L6.68756 19.0797C6.95831 18.9806 7.26001 19.0158 7.50067 19.1746C8.79112 20.026 10.3363 20.5216 12 20.5216C16.5187 20.5216 20.1818 16.8585 20.1818 12.3398C20.1818 7.82114 16.5187 4.15802 12 4.15802Z" fill="#2A3942"/>
<path fill-rule="evenodd" clip-rule="evenodd" d="M8.17263 7.87974C8.97857 7.07377 10.3227 7.18163 10.9797 8.12663L10.9801 8.12719C11.2047 8.45072 11.4458 8.79707 11.7156 9.17954L11.7172 9.18173C12.191 9.85785 12.1588 10.7729 11.6356 11.409C11.8185 11.6402 12.0236 11.8698 12.2457 12.092L12.2468 12.0931C12.247 12.0932 12.2471 12.0934 12.2473 12.0935C12.2473 12.0935 12.2474 12.0936 12.2474 12.0936C12.4703 12.316 12.6997 12.5211 12.9306 12.7038C13.5653 12.183 14.4795 12.1455 15.1585 12.6229L15.1587 12.623C15.5201 12.8772 15.849 13.1064 16.1575 13.3213L16.2121 13.3593C16.2123 13.3594 16.2124 13.3595 16.2126 13.3597C17.1585 14.0168 17.2664 15.3614 16.4589 16.1674L16.127 16.4994L16.1257 16.5006C15.1302 17.492 13.8284 17.4912 12.6787 17.0822C11.554 16.6821 10.4306 15.8572 9.47801 14.9094C9.46994 14.9019 9.46199 14.8942 9.45416 14.8864C8.49635 13.9277 7.66087 12.7943 7.25747 11.66C6.84866 10.5104 6.84803 9.20922 7.83866 8.21372L7.8401 8.21228L8.17263 7.87974ZM10.6099 13.6847C10.6172 13.6915 10.6244 13.6985 10.6315 13.7056C11.4929 14.5674 12.4218 15.2216 13.2374 15.5117C14.0375 15.7964 14.5737 15.6934 14.9491 15.3199C14.9493 15.3198 14.9494 15.3196 14.9496 15.3195L15.2814 14.9876C15.3606 14.9086 15.3453 14.7867 15.2616 14.7286L15.2045 14.6889C14.8964 14.4742 14.5646 14.2431 14.2 13.9865C14.1295 13.937 14.033 13.9469 13.9758 14.0033C13.9757 14.0034 13.9756 14.0035 13.9755 14.0036L13.6006 14.3761C13.3247 14.6501 12.8959 14.697 12.5673 14.4889C12.0411 14.1556 11.533 13.7357 11.0693 13.2729L11.0671 13.2706C10.6035 12.807 10.1836 12.2979 9.85053 11.772C9.64246 11.4435 9.68928 11.0147 9.96335 10.7387L10.3373 10.3623C10.3907 10.3086 10.4036 10.2124 10.3526 10.139C10.0797 9.75218 9.83618 9.4024 9.61106 9.07805C9.55298 8.99472 9.43037 8.9793 9.35126 9.0584L9.01953 9.39014C8.64637 9.76563 8.5435 10.3016 8.82795 11.1014C9.11531 11.9095 9.75993 12.829 10.6099 13.6847Z" fill="#2A3942"/>
</svg>
