<svg class="icon icon-google-business" width="24" height="25" viewBox="0 0 24 25" fill="none" xmlns="http://www.w3.org/2000/svg">
<path d="M11 10.1182V4.88672H8.80861L8.11721 10.2461C8.04654 10.7938 7.5448 11.181 6.99709 11.1104C6.44935 11.0397 6.06218 10.538 6.13283 9.99023L6.93752 3.75879L6.95314 3.66699C7.05453 3.21503 7.45737 2.88685 7.92873 2.88672H12L12.1026 2.8916C12.6067 2.94293 13 3.36904 13 3.88672V10.1182C13 10.6704 12.5523 11.1182 12 11.1182C11.4477 11.1182 11 10.6704 11 10.1182Z" fill="#2A3942"/>
<path d="M3.2207 10.3584C3.08824 10.8943 2.54675 11.221 2.01074 11.0889C1.47454 10.9565 1.14696 10.4151 1.27929 9.87891L3.2207 10.3584ZM7.92871 2.88672L8.03124 2.8916C8.53556 2.94276 8.92871 3.36891 8.92871 3.88672C8.92871 4.40453 8.53556 4.83068 8.03124 4.88184L7.92871 4.88672H4.57128L3.2207 10.3584L1.27929 9.87891L2.62988 4.40723L2.67578 4.24707C2.80006 3.87877 3.03 3.5537 3.33789 3.3125C3.68986 3.03686 4.12422 2.8867 4.57128 2.88672H7.92871Z" fill="#2A3942"/>
<path d="M6.125 10.1191C6.125 9.56686 6.57272 9.11914 7.125 9.11914C7.67728 9.11914 8.125 9.56686 8.125 10.1191C8.125 10.5004 8.27631 10.8662 8.5459 11.1357C8.81548 11.4053 9.18125 11.5566 9.5625 11.5566C9.94375 11.5566 10.3095 11.4053 10.5791 11.1357C10.8487 10.8662 11 10.5004 11 10.1191C11 9.56686 11.4477 9.11914 12 9.11914C12.5523 9.11914 13 9.56686 13 10.1191C13 11.0308 12.6378 11.9051 11.9932 12.5498C11.3485 13.1945 10.4742 13.5566 9.5625 13.5566C8.65082 13.5566 7.77649 13.1945 7.13184 12.5498C6.48718 11.9051 6.125 11.0308 6.125 10.1191Z" fill="#2A3942"/>
<path d="M1.25 10.1191C1.25 9.56686 1.69772 9.11914 2.25 9.11914C2.80228 9.11914 3.25 9.56686 3.25 10.1191C3.25 10.5004 3.40131 10.8662 3.6709 11.1357C3.94048 11.4053 4.30625 11.5566 4.6875 11.5566C5.06875 11.5566 5.43452 11.4053 5.7041 11.1357C5.97369 10.8662 6.125 10.5004 6.125 10.1191C6.125 9.56686 6.57272 9.11914 7.125 9.11914C7.67728 9.11914 8.125 9.56686 8.125 10.1191C8.125 11.0308 7.76282 11.9051 7.11816 12.5498C6.47351 13.1945 5.59918 13.5566 4.6875 13.5566C3.77582 13.5566 2.90149 13.1945 2.25684 12.5498C1.61218 11.9051 1.25 11.0308 1.25 10.1191Z" fill="#2A3942"/>
<path d="M11 10.1182V3.88672L11.0049 3.78418C11.0562 3.28005 11.4823 2.88672 12 2.88672H16.0713L16.1641 2.89062C16.6254 2.93336 17.0022 3.29119 17.0625 3.75879L17.8672 9.99023L17.875 10.0928C17.8885 10.5992 17.5163 11.0441 17.0029 11.1104C16.4894 11.1766 16.0166 10.8403 15.9014 10.3467L15.8828 10.2461L15.1914 4.88672H13V10.1182C13 10.6704 12.5523 11.1182 12 11.1182C11.4477 11.1182 11 10.6704 11 10.1182Z" fill="#2A3942"/>
<path d="M22.7213 9.87891C22.8535 10.4149 22.5258 10.9564 21.9899 11.0889C21.4538 11.2212 20.9114 10.8944 20.7789 10.3584L22.7213 9.87891ZM19.4283 2.88672L19.5953 2.89355C19.9829 2.92592 20.3537 3.07124 20.6617 3.3125C21.0137 3.58811 21.2636 3.97326 21.3707 4.40723L22.7213 9.87891L21.7496 10.1182L20.7789 10.3584L19.4293 4.88672H16.0709C15.5186 4.88672 15.0709 4.439 15.0709 3.88672C15.0709 3.33443 15.5186 2.88672 16.0709 2.88672H19.4283Z" fill="#2A3942"/>
<path d="M11 10.1191C11 9.56686 11.4477 9.11914 12 9.11914C12.5177 9.11914 12.9438 9.51247 12.9951 10.0166L13 10.1191C13 10.5004 13.1513 10.8662 13.4209 11.1357C13.6905 11.4053 14.0563 11.5566 14.4375 11.5566C14.8187 11.5566 15.1845 11.4053 15.4541 11.1357C15.6901 10.8997 15.8356 10.59 15.8682 10.2607L15.875 10.1191C15.875 9.56686 16.3227 9.11914 16.875 9.11914C17.3927 9.11914 17.8188 9.51247 17.8701 10.0166L17.875 10.1191C17.875 11.0308 17.5128 11.9051 16.8682 12.5498C16.2235 13.1945 15.3492 13.5566 14.4375 13.5566C13.5258 13.5566 12.6515 13.1945 12.0068 12.5498C11.4026 11.9455 11.0462 11.1395 11.0039 10.29L11 10.1191Z" fill="#2A3942"/>
<path d="M15.875 10.1191C15.875 9.56686 16.3227 9.11914 16.875 9.11914C17.4273 9.11914 17.875 9.56686 17.875 10.1191C17.875 10.5004 18.0263 10.8662 18.2959 11.1357C18.5655 11.4053 18.9313 11.5566 19.3125 11.5566C19.6937 11.5566 20.0595 11.4053 20.3291 11.1357C20.5987 10.8662 20.75 10.5004 20.75 10.1191C20.75 9.56686 21.1977 9.11914 21.75 9.11914C22.3023 9.11914 22.75 9.56686 22.75 10.1191C22.75 11.0308 22.3878 11.9051 21.7432 12.5498C21.0985 13.1945 20.2242 13.5566 19.3125 13.5566C18.4008 13.5566 17.5265 13.1945 16.8818 12.5498C16.2372 11.9051 15.875 11.0308 15.875 10.1191Z" fill="#2A3942"/>
<path d="M2.6626 19.793V12.3281C2.6626 11.7758 3.11031 11.3281 3.6626 11.3281C4.21488 11.3281 4.6626 11.7758 4.6626 12.3281V19.793H19.3374V12.3291C19.3374 11.7769 19.7852 11.3292 20.3374 11.3291C20.8897 11.3291 21.3374 11.7768 21.3374 12.3291V19.793C21.3374 20.3234 21.1265 20.832 20.7515 21.207C20.3764 21.582 19.8678 21.793 19.3374 21.793H4.6626C4.1322 21.793 3.6236 21.5821 3.24854 21.207C2.8735 20.832 2.66264 20.3234 2.6626 19.793Z" fill="#2A3942"/>
<path d="M18.0146 15.877L18.1143 15.8867C18.3385 15.9319 18.5088 16.1269 18.5146 16.3643C18.5226 16.691 18.4664 17.0164 18.3486 17.3213C18.2309 17.6261 18.0545 17.905 17.8291 18.1416C17.6037 18.3782 17.333 18.5679 17.0342 18.7002C16.7355 18.8324 16.4135 18.9042 16.0869 18.9121H16.083L16.0449 18.9131H16.0371C15.704 18.9131 15.3732 18.8472 15.0654 18.7197C14.7579 18.5923 14.4786 18.4053 14.2432 18.1699C14.0077 17.9345 13.8208 17.6552 13.6934 17.3477C13.5659 17.04 13.5001 16.7099 13.5 16.377C13.5 16.0439 13.566 15.7139 13.6934 15.4062C13.8208 15.0985 14.0076 14.8186 14.2432 14.583C14.4786 14.3476 14.7579 14.1607 15.0654 14.0332C15.3724 13.906 15.7019 13.8411 16.0342 13.8408V13.8398L16.0352 13.8408L16.0371 13.8398V13.8408C16.4238 13.8396 16.8047 13.9268 17.1504 14.0967L17.2959 14.1748L17.3789 14.2334C17.553 14.3876 17.6001 14.6481 17.4795 14.8574C17.3588 15.0666 17.1102 15.1553 16.8896 15.082L16.7969 15.041L16.6191 14.9531C16.4358 14.8776 16.2386 14.839 16.0391 14.8398H16.0371C15.8353 14.8398 15.6347 14.8798 15.4482 14.957C15.262 15.0342 15.0928 15.1474 14.9502 15.29C14.8076 15.4326 14.6944 15.6018 14.6172 15.7881C14.54 15.9745 14.5 16.1752 14.5 16.377C14.5001 16.5786 14.54 16.7785 14.6172 16.9648C14.6944 17.1511 14.8076 17.3203 14.9502 17.4629C15.0928 17.6055 15.262 17.7187 15.4482 17.7959C15.6347 17.8731 15.8353 17.9131 16.0371 17.9131H16.0625C16.2579 17.9084 16.4512 17.8653 16.6299 17.7861C16.8086 17.707 16.9696 17.5927 17.1045 17.4512C17.2393 17.3096 17.3456 17.1433 17.416 16.9609C17.4266 16.9334 17.4344 16.905 17.4434 16.877H16.0371C15.7611 16.877 15.5373 16.6529 15.5371 16.377C15.5371 16.1008 15.761 15.877 16.0371 15.877H18.0146Z" fill="#2A3942"/>
</svg>
